<svg xmlns="http://www.w3.org/2000/svg" width="1200" height="160" viewBox="0 0 1200 160">
  <defs>
    <linearGradient id="v1" x1="0" y1="0" x2="1" y2="1">
      <stop offset="0%" stop-color="#08111a"/>
      <stop offset="100%" stop-color="#0b1f2a"/>
    </linearGradient>
  </defs>
  <rect width="100%" height="100%" fill="url(#v1)"/>
  <!-- light trails -->
  <g opacity="0.75">
    <rect x="0" y="30" width="1200" height="2" fill="#00c389" opacity="0.35"/>
    <rect x="160" y="48" width="880" height="2" fill="#4cc3ff" opacity="0.30"/>
    <rect x="80" y="66" width="1040" height="2" fill="#00c389" opacity="0.22"/>
  </g>
  <!-- skyline silhouettes -->
  <g fill="#0f2633">
    <rect x="50" y="82" width="42" height="58"/>
    <rect x="98" y="72" width="22" height="68"/>
    <rect x="128" y="60" width="54" height="80"/>
    <rect x="186" y="78" width="36" height="62"/>
    <rect x="228" y="66" width="28" height="74"/>
    <rect x="260" y="56" width="46" height="84"/>
    <rect x="312" y="74" width="28" height="66"/>
    <rect x="344" y="80" width="22" height="60"/>
    <rect x="370" y="66" width="58" height="74"/>
    <rect x="432" y="58" width="40" height="82"/>
    <rect x="476" y="76" width="30" height="64"/>
    <rect x="510" y="64" width="22" height="76"/>
    <rect x="538" y="50" width="50" height="90"/>
    <rect x="594" y="72" width="36" height="68"/>
    <rect x="636" y="66" width="26" height="74"/>
    <rect x="666" y="60" width="42" height="80"/>
    <rect x="712" y="76" width="26" height="64"/>
    <rect x="742" y="70" width="20" height="70"/>
    <rect x="766" y="58" width="54" height="82"/>
    <rect x="824" y="66" width="28" height="74"/>
    <rect x="856" y="76" width="24" height="64"/>
    <rect x="884" y="62" width="36" height="78"/>
    <rect x="924" y="72" width="22" height="68"/>
    <rect x="950" y="54" width="48" height="86"/>
    <rect x="1002" y="70" width="26" height="70"/>
  </g>
  <!-- ground glow -->
  <rect x="0" y="120" width="1200" height="40" fill="#00c389" opacity="0.08"/>
</svg>
