<svg xmlns="http://www.w3.org/2000/svg" width="1200" height="160" viewBox="0 0 1200 160">
  <defs>
    <linearGradient id="v2" x1="0" y1="0" x2="1" y2="1">
      <stop offset="0%" stop-color="#0a1724"/>
      <stop offset="100%" stop-color="#0e1a26"/>
    </linearGradient>
    <linearGradient id="band" x1="0" y1="0" x2="1" y2="0">
      <stop offset="0%" stop-color="#4cc3ff" stop-opacity="0"/>
      <stop offset="50%" stop-color="#4cc3ff" stop-opacity="0.35"/>
      <stop offset="100%" stop-color="#4cc3ff" stop-opacity="0"/>
    </linearGradient>
  </defs>
  <rect width="100%" height="100%" fill="url(#v2)"/>
  <!-- diagonal glass bands -->
  <g transform="skewY(-6)">
    <rect x="-100" y="-10" width="1400" height="24" fill="url(#band)"/>
    <rect x="-80" y="26" width="1400" height="24" fill="url(#band)"/>
    <rect x="-60" y="62" width="1400" height="24" fill="url(#band)"/>
  </g>
  <!-- subtle skyline -->
  <g fill="#102838" opacity="0.85">
    <rect x="80" y="84" width="34" height="56"/>
    <rect x="118" y="72" width="20" height="68"/>
    <rect x="142" y="64" width="42" height="76"/>
    <rect x="188" y="78" width="28" height="62"/>
    <rect x="222" y="66" width="22" height="74"/>
    <rect x="246" y="58" width="40" height="82"/>
    <rect x="290" y="76" width="24" height="64"/>
    <rect x="318" y="70" width="18" height="70"/>
    <rect x="340" y="62" width="46" height="78"/>
  </g>
  <rect x="0" y="122" width="1200" height="38" fill="#4cc3ff" opacity="0.07"/>
</svg>
